<?xml version="1.0" encoding="UTF-8" standalone="no"?>
<svg
   width="113.00001"
   height="78.000008"
   viewBox="0 0 113.00001 78.000008"
   fill="none"
   version="1.1"
   id="svg11"
   sodipodi:docname="a15cd4445f3439488b20e4dfa8e2be8b.svg"
   xmlns:inkscape="http://www.inkscape.org/namespaces/inkscape"
   xmlns:sodipodi="http://sodipodi.sourceforge.net/DTD/sodipodi-0.dtd"
   xmlns="http://www.w3.org/2000/svg"
   xmlns:svg="http://www.w3.org/2000/svg">
  <sodipodi:namedview
     id="namedview13"
     pagecolor="#ffffff"
     bordercolor="#666666"
     borderopacity="1.0"
     inkscape:pageshadow="2"
     inkscape:pageopacity="0.0"
     inkscape:pagecheckerboard="0" />
  <path
     fill-rule="evenodd"
     clip-rule="evenodd"
     d="m 59.0684,27.372299 c 0.5249,-0.0833 0.9357,-0.1573 0.9357,-0.1573 0,0 -1.1015,1.0856 -2.2597,1.1794 -1.1581,0.0938 -2.1185,-0.531 -2.1185,-0.531 0,0 1.0288,-0.214 1.8218,-0.2783 0.4566,-0.037 1.0957,-0.1295 1.6207,-0.2128 0.5249,-0.0833 0.9357,-0.1573 0.9357,-0.1573 0,0 -1.1015,1.0856 -2.2597,1.1794 -1.1581,0.0938 -2.1185,-0.531 -2.1185,-0.531 0,0 1.0288,-0.214 1.8218,-0.2783 0.4566,-0.037 1.0957,-0.1295 1.6207,-0.2128 z m 30.2966,16.6221 c 1.9025,0.7883 3.577,1.74 4.8805,2.8884 0.0859,0.0756 0.17,0.1522 0.2523,0.2298 -0.6037,0.1483 -1.5272,0.2783 -2.9297,0.3515 -4.1044,0.2145 -10.0669,0.0926 -11.9329,0.0463 -0.2869,-0.7651 -0.2751,-1.6983 -0.5994,-2.3984 0.9853,-0.2397 3.4566,-0.8153 5.2561,-1.0159 1.1713,-0.1306 3.6193,-0.1212 5.0731,-0.1017 z m -4.7555,-1.5508 c -10.4059,-2.6645 -23.5093,-2.1608 -23.5093,-2.1608 0,0 -0.0206,0.5129 -0.0563,1.3362 2.3036,0.2497 9.4238,1.0708 15.6745,2.3116 z M 89.8468,9.3072286 c 2.1735,-0.65495 8.9325,-2.0386 12.1062,4.8108704 -1.495,0.7214 -3.7293,1.7629 -4.7678,2.0625 -3.4117,0.9844 -9.2322,2.0716 -11.7691,2.5265 2.5559,-3.8664 3.8808,-7.5844 4.4307,-9.3998704 z m -5.1992,1.9054704 c -3.7712,1.5959 -9.2108,4.3693 -13.5277,8.4685 -7.3792,7.007 -9.672,14.3564 -9.672,14.3564 0,0 0.072,1.2085 0.0633,2.42 3.3741,-2.2895 12.783,-8.8703 16.8265,-13.7138 4.0882,-4.897 5.8224,-9.905 6.3099,-11.5311 z m -23.2945,27.661 c 1.2392,-0.0878 6.569,-0.4055 13.739,-0.2797 8.0779,0.1417 16.9033,1.0792 18.0833,1.0176 1.7588,-0.0919 7.2196,-1.6487 9.4796,-8.7384 -1.56,-0.5639 -4.1054,-1.3859 -5.6803,-1.3852 -6.6784,0.0029 -19.9132,1.4406 -25.0933,2.0341 -4.2619,3.1641 -8.4453,5.9767 -10.5283,7.3516 z m 13.3785,-9.5163 c 5.4777,-0.5342 17.9903,-1.7777 21.033,-2.2813 2.6146,-0.4328 5.9484,-2.1036 7.8844,-3.1716 0.006,-1.0752 -0.044,-2.2219 -0.156,-3.4446 -0.052,-0.5774 -0.12,-1.1275 -0.201,-1.6514 -1.657,-0.0524 -4.4839,-0.1061 -6.9503,0.0228 -2.7947,0.146 -9.2832,1.3693 -12.4461,1.991 -0.7463,0.9547 -1.5729,1.899 -2.4867,2.8064 -1.8073,1.7947 -4.1758,3.781 -6.6773,5.7287 z m 21.6014,20.112 c 0.9872,1.7866 1.3701,3.835 1.2499,5.9585 -1.0757,-0.4127 -3.4909,-1.3227 -4.5896,-1.6032 -2.3219,-0.5928 -6.3204,-1.5472 -8.6244,-2.0933 -0.6421,-1.2346 -2.4067,-1.5634 -4.1402,-3.3337 0.691,0.1579 3.1196,0.6279 8.5157,0.9032 2.4845,0.1267 5.7456,0.1601 7.5886,0.1685 z m 0.7593,8.9767 c -0.3999,1.5106 -1.024,3.0152 -1.8376,4.4491 -0.4804,-0.3797 -3.7432,-2.9499 -5.7696,-4.3034 -1.5839,-1.0579 -5.3367,-2.8745 -7.057,-3.6903 1.2131,-0.2479 2.0924,-0.8163 2.1847,-1.8811 1.4657,0.4047 4.2689,1.2141 6.0419,1.9487 1.592,0.6596 4.9732,2.616 6.4376,3.477 z m -3.4676,6.8995 c -1.702,2.206 -3.8696,4.1124 -6.3426,5.4237 -0.6962,-1.0352 -2.4564,-3.6514 -4.0554,-6.0191 0.1993,-0.9591 -0.1124,-2.3442 -0.9097,-3.667 -1.0011,-1.661 -2.4486,-2.6942 -3.5099,-2.6016 -1.2844,-1.7437 -2.5452,-3.4262 -3.1227,-4.1949 1.3313,0.413 3.3141,0.783 5.074,0.7706 1.2364,0.7776 5.5017,3.4895 7.1654,4.9326 1.9032,1.6508 4.9347,4.6054 5.7009,5.3557 z m -9.048,6.5702 c -1.232,0.3963 -2.5171,0.6435 -3.8397,0.7126 -0.0736,0.0038 -0.1471,0.0071 -0.2204,0.0097 -0.3843,-0.5712 -5.3577,-7.9583 -7.7278,-11.1881 -2.0109,-2.7402 -4.5598,-5.1396 -7.2678,-8.7852 -1.9464,-2.6203 -3.6185,-5.057 -4.6829,-6.6465 0.0081,-0.1597 0.0161,-0.3187 0.0239,-0.4766 1.8197,1.3731 7.2783,5.37 12.0595,7.6306 0.7749,1.0716 2.6775,3.7117 4.6674,6.5421 -0.1939,0.9586 0.1185,2.3374 0.9123,3.6545 0.9317,1.5459 2.2501,2.548 3.284,2.6048 1.586,2.7198 2.4465,4.95 2.7915,5.9421 z m -4.3633,0.7297 c -0.8809,0.0114 -1.7376,-0.0652 -2.5693,-0.2182 z m -3.428,-0.4051 c -10.4815,-2.6359 -16.7294,-17.2689 -16.4396,-19.1623 0.1167,-0.7617 0.2469,-2.6274 0.3658,-4.7055 0.8639,1.4395 2.2121,3.5959 3.6553,5.5606 2.901,3.9491 6.3127,8.0999 8.3924,11.1684 1.6795,2.4781 3.6615,6.4081 4.0261,7.1388 z m -16.7121,-41.9627 c 1.1981,-0.8511 1.9656,-2.2305 1.9386,-3.7744 -0.0298,-1.7001 -1.0153,-3.1673 -2.4541,-3.9332 0.7651,-1.571 2.0926,-4.1532 3.1803,-5.5262 1.1353,-1.4332 2.9879,-3.0499 2.9879,-3.0499 0,0 5.0768,-2.9742 4.0469,-3.4641 -1.0299,-0.4898 -1.9676,0.1552 -2.5411,0.552 -0.9141,0.6324 -2.3791,2.1547 -2.3791,2.1547 0,0 -2.291,2.623 -3.0715,3.8239 -0.9449,1.4539 -2.1955,3.7595 -2.955,5.195 -0.5135,-0.1721 -1.0667,-0.2613 -1.6421,-0.2512 -0.3598,0.0062 -0.7096,0.051 -1.0452,0.13 0.0882,-1.9985 0.068,-5.5269 -1.0224,-7.0829 -0.7874,-1.1236 -7.2454,-2.9951 -8.1811,-3.5954 -0.587,-0.3765 -2.3077,-0.9286 -2.6949,-0.6374 -0.3871,0.2912 0.6992,1.1599 1.1182,1.7687 0.3117,0.4528 3.15,0.562 3.15,0.562 0,0 4.9367,1.1413 6.1215,2.5341 1.1523,1.3546 1.0397,4.6602 0.8461,6.6581 -1.7637,0.694 -2.9936,2.3796 -2.9595,4.327 0.003,0.1719 0.0158,0.3413 0.0378,0.508 -3.0682,-4.4714 -7.3883,-9.8818 -12.5457,-13.9332 C 31.3448,6.4373586 19.8971,2.8303286 11.5545,1.6067786 3.21189,0.38323856 -0.298328,6.6166386 0.0197494,11.080899 c 0.4200956,5.8961 5.8167306,10.7631 6.9661106,18.353 0.32665,2.157 0.19789,9.1607 4.13004,12.5373 3.9322,3.3765 9.7358,2.7828 9.7358,2.7828 0,0 -4.4862,1.0932 -6.4508,7.9682 -1.9645,6.8749 9.2691,25.4573 19.6623,25.2765 7.3668,-0.1282 15.4467,-9.4777 20.3708,-19.519 -1.0404,8.3819 -1.9158,20.1168 0.9961,16.4655 2.6993,-3.3849 4.0902,-11.5612 4.8005,-19.4271 0.3868,1.1805 0.8253,2.2543 1.3222,3.1546 5.5577,10.0695 14.6369,19.5058 22.2571,19.1076 10.3481,-0.5406 20.2241,-19.7802 17.7911,-26.474 -2.4327,-6.6938 -6.9702,-7.469 -6.9702,-7.469 0,0 5.8132,0.1876 9.4882,-3.4394 3.675,-3.627 3.058,-10.576 3.233,-12.7416 0.614,-7.6199 5.641,-12.8291 5.648,-18.7158004 0.005,-4.45714 -3.92,-10.40651 -12.131,-8.61276404 C 92.658,2.1214886 81.5253,6.4983586 73.3837,13.860299 c -5.8442,5.2846 -10.3397,12.4482 -13.0448,17.4368 -0.0805,-0.3644 -0.169,-0.7042 -0.2656,-1.0194 z m -4.7291,19.2512 c -0.1126,-0.7642 -0.2358,-1.6751 -0.3605,-2.6394 -0.7679,1.5041 -1.9388,3.6954 -3.2126,5.7111 -2.6341,4.1685 -5.7668,8.5752 -7.6385,11.802 -1.3289,2.291 -2.8135,5.7254 -3.3666,7.0378 7.6205,-2.5963 12.4221,-11.5689 14.1681,-16.6692 0.0435,-0.2967 0.0862,-0.5814 0.1278,-0.8524 0.2357,-1.5342 0.3113,-3.0064 0.2823,-4.3899 z m -1.8311,-10.8137 c -2.4805,0.1127 -13.8482,0.7769 -22.8925,3.7758 l 7.933,0.9837 c 5.8099,-1.5908 12.4583,-2.8651 15.181,-3.3623 -0.1295,-0.5063 -0.2132,-0.8911 -0.2176,-1.1382 -0.0015,-0.0867 -0.0028,-0.1731 -0.0039,-0.259 z m 0.0013,-1.3687 c -1.6623,0.0076 -6.781,0.0932 -13.4806,0.6773 -8.0805,0.7045 -16.854,2.256 -18.0401,2.2767 -1.7583,0.0306 -7.2858,-1.131 -10.0624,-7.9553 1.522,-0.6843 3.9693,-1.6815 5.5251,-1.7909 6.8014,-0.4784 20.5198,0.0823 25.4986,0.3132 4.229,2.6832 8.3348,5.0462 10.5624,6.3017 -0.0011,0.0589 -0.0021,0.1179 -0.003,0.1773 z m 0.5582,4.0415 c -1.1144,0.2379 -14.3867,3.0955 -15.4455,4.4383 -0.7628,0.9673 -0.0485,1.8992 -0.7645,2.7924 -1.389,1.7327 -5.3609,2.8238 -4.1467,4.1344 1.0396,1.1219 4.6261,0.0047 5.6442,-0.4868 2.6006,-1.2555 14.8034,-9.9532 14.8034,-9.9532 l -0.0109,-0.6204 c -0.027,-0.1039 -0.0538,-0.2055 -0.08,-0.3047 z m 0.6147,3.1386 c -0.0212,-0.1735 -0.0423,-0.3463 -0.0631,-0.518 -1.7949,1.5604 -6.8965,5.8608 -11.4619,8.4288 -0.7856,1.2448 -2.694,4.281 -4.6052,7.4129 0.1228,0.5768 0.0164,1.3068 -0.3399,2.004 -0.4418,0.8644 -1.1502,1.4485 -1.8144,1.576 -2.2131,3.7751 -3.2431,7.0079 -3.5998,8.2949 1.2505,0.3042 2.5431,0.4585 3.8603,0.4356 0.142,-0.0025 0.2832,-0.0072 0.4237,-0.014 0.9802,-1.6995 4.8157,-8.3304 6.7589,-11.4088 1.8258,-2.8923 4.2155,-5.48 6.6774,-9.3302 1.7274,-2.7017 3.2047,-5.2093 4.164,-6.8812 z m -17.4982,14.2409 c 1.2741,-1.9897 2.6209,-4.0464 3.2495,-5.0031 -1.3995,0.5416 -3.5416,1.084 -5.3901,1.1386 -1.2865,0.972 -5.0865,3.8786 -6.5713,5.4073 -1.6461,1.6948 -4.1893,4.6241 -5.0708,5.6463 1.8354,2.0171 4.0937,3.7116 6.6048,4.8177 0.8286,-1.418 3.209,-5.4897 4.8285,-8.2393 0.0311,-0.0527 0.0632,-0.1069 0.0963,-0.1626 -0.1258,-0.5781 -0.0202,-1.3121 0.3381,-2.013 0.4641,-0.9083 1.2227,-1.507 1.915,-1.5919 z m -15.5935,4.8962 c -0.9639,-1.4152 -1.7302,-2.923 -2.2545,-4.4541 1.3812,-0.9571 4.5151,-3.0957 6.013,-3.8503 1.8014,-0.9075 4.7545,-1.9812 6.0437,-2.436 0.0785,1.1057 0.9079,1.6665 2.0703,1.8796 -1.6506,0.9584 -5.1528,3.0313 -6.619,4.2018 -1.7803,1.4213 -4.5581,4.0076 -5.2535,4.659 z m -2.9496,-7.3844 c -0.2633,-2.03 -0.0525,-4.0235 0.7353,-5.8195 1.8275,-0.1387 5.1776,-0.4123 7.7105,-0.7287 5.0897,-0.6357 7.5172,-1.2619 8.3487,-1.5103 -1.5172,1.756 -3.1399,2.2575 -3.7734,3.3894 -2.1133,0.6651 -6.3045,1.9904 -8.6712,2.7817 -1.0469,0.3501 -3.3226,1.404 -4.3499,1.8874 z m 2.4353,-8.4254 c 0.0957,-0.105 0.1944,-0.2086 0.2959,-0.311 1.1681,-1.1768 2.6878,-2.1985 4.432,-3.0853 1.3906,-0.123 4.0093,-0.3313 5.2376,-0.2767 1.8639,0.0829 4.4758,0.5356 5.3719,0.6991 -0.2347,0.7074 -0.1752,1.5914 -0.3951,2.3429 -1.9568,0.19 -7.8206,0.7304 -11.8959,0.8013 -1.4763,0.0257 -2.4321,-0.0505 -3.0464,-0.1703 z m -10.6809,-22.5161 c -0.0805,-1.0732 -0.1114,-2.2215 -0.0854,-3.4501 0.0125,-0.5889 0.042,-1.1507 0.0872,-1.6867 1.6542,-0.1673 4.481,-0.4174 6.9596,-0.4605 2.792,-0.0486 9.3169,0.71 12.5423,1.1106 0.8217,0.9102 1.7247,1.8043 2.7142,2.6546 1.9733,1.6958 4.5438,3.5493 7.2413,5.3497 -5.3905,-0.1533 -18.2528,-0.5419 -21.365,-0.8438 -2.6404,-0.2561 -6.0863,-1.7225 -8.0942,-2.6738 z m 1.0145,-9.8988 c 2.6779,-7.0004804 9.4536,-6.1600104 11.7309,-5.6554204 0.6758,1.7677204 2.2624,5.3861204 5.0945,9.0697204 -2.5923,-0.2793 -8.4453,-0.9535 -11.9081,-1.692 -1.0606,-0.2262 -3.3712,-1.1082 -4.9173,-1.7223 z m 17.0777,-4.1187 c 3.8906,1.3281 9.5612,3.7237 14.1918,7.5336 7.8827,6.4855 10.6951,13.6675 10.6951,13.6675 0,0 0.0126,1.2065 0.1059,2.4132 -3.5353,-2.0451 -13.4493,-7.9675 -17.8493,-12.5265 -4.4572,-4.6183 -6.5475,-9.5131 -7.1435,-11.0878 z m 32.8316,31.6362 c 0,0 14.4549,2.0811 15.6455,3.4186 0.8217,0.9231 0.1816,1.9125 0.9518,2.7639 1.4942,1.6517 5.4949,2.4774 4.3876,3.8835 -0.948,1.2037 -4.5698,0.325 -5.6102,-0.1003 -2.6574,-1.0864 -15.3248,-9.0153 -15.3248,-9.0153 z"
     fill="url(#paint0_linear_32_62)"
     id="path2"
     style="fill:url(#paint0_linear_32_62)" />
  <defs
     id="defs9">
    <linearGradient
       id="paint0_linear_32_62"
       x1="0"
       y1="0"
       x2="113"
       y2="0"
       gradientUnits="userSpaceOnUse"
       gradientTransform="translate(0)">
      <stop
         stop-color="#6D7CFF"
         id="stop4" />
      <stop
         offset="1"
         stop-color="#FF51FF"
         id="stop6" />
    </linearGradient>
  </defs>
</svg>
