<?xml version="1.0" encoding="UTF-8" standalone="no"?>
<svg
   width="160"
   height="124"
   viewBox="0 0 160 124"
   fill="none"
   version="1.1"
   id="svg13"
   sodipodi:docname="6cb9c0f3fd71accd10b4257f4443b809.svg"
   xmlns:inkscape="http://www.inkscape.org/namespaces/inkscape"
   xmlns:sodipodi="http://sodipodi.sourceforge.net/DTD/sodipodi-0.dtd"
   xmlns="http://www.w3.org/2000/svg"
   xmlns:svg="http://www.w3.org/2000/svg">
  <sodipodi:namedview
     id="namedview15"
     pagecolor="#ffffff"
     bordercolor="#666666"
     borderopacity="1.0"
     inkscape:pageshadow="2"
     inkscape:pageopacity="0.0"
     inkscape:pagecheckerboard="0" />
  <path
     fill-rule="evenodd"
     clip-rule="evenodd"
     d="M82.1138 30.5307C82.6481 30.4378 83.0661 30.3552 83.0661 30.3552C83.0661 30.3552 81.9451 31.566 80.7665 31.6707C79.5878 31.7753 78.6105 31.0784 78.6105 31.0784C78.6105 31.0784 79.6575 30.8397 80.4645 30.768C80.9292 30.7267 81.5796 30.6236 82.1138 30.5307C82.6481 30.4378 83.0661 30.3552 83.0661 30.3552C83.0661 30.3552 81.9451 31.566 80.7665 31.6707C79.5878 31.7753 78.6105 31.0784 78.6105 31.0784C78.6105 31.0784 79.6575 30.8397 80.4645 30.768C80.9292 30.7267 81.5796 30.6236 82.1138 30.5307ZM112.947 49.0707C114.883 49.9499 116.587 51.0115 117.914 52.2923C118.001 52.3767 118.087 52.4621 118.17 52.5486C117.556 52.7141 116.616 52.859 115.189 52.9408C111.012 53.18 104.944 53.0441 103.045 52.9924C102.753 52.139 102.765 51.0982 102.435 50.3172C103.437 50.0499 105.952 49.4078 107.784 49.1841C108.976 49.0384 111.467 49.0489 112.947 49.0707ZM108.107 47.341C97.5169 44.369 84.1817 44.9308 84.1817 44.9308C84.1817 44.9308 84.1607 45.5029 84.1244 46.4212C86.4687 46.6997 93.715 47.6156 100.076 48.9996L108.107 47.341ZM113.437 10.3811C115.649 9.65062 122.528 8.10731 125.757 15.7472C124.236 16.5518 121.962 17.7134 120.905 18.0476C117.433 19.1456 111.51 20.3583 108.928 20.8656C111.529 16.5531 112.877 12.4061 113.437 10.3811ZM108.146 12.5065C104.308 14.2865 98.772 17.38 94.3787 21.9521C86.8689 29.7676 84.5355 37.965 84.5355 37.965C84.5355 37.965 84.6088 39.313 84.5999 40.6643C88.0337 38.1105 97.6091 30.7705 101.724 25.3681C105.885 19.906 107.65 14.3203 108.146 12.5065ZM84.439 43.3592C85.7001 43.2612 91.1243 42.9068 98.4212 43.0471C106.642 43.2052 115.624 44.2509 116.825 44.1821C118.614 44.0797 124.172 42.3433 126.472 34.4355C124.884 33.8066 122.294 32.8897 120.691 32.8905C113.894 32.8937 100.425 34.4973 95.1536 35.1593C90.8163 38.6885 86.5588 41.8256 84.439 43.3592ZM98.0543 32.7448C103.629 32.149 116.363 30.762 119.46 30.2003C122.12 29.7175 125.514 27.854 127.484 26.6627C127.489 25.4635 127.439 24.1845 127.325 22.8206C127.271 22.1766 127.203 21.5631 127.121 20.9787C125.434 20.9202 122.557 20.8604 120.047 21.0041C117.203 21.167 110.599 22.5314 107.38 23.2248C106.621 24.2898 105.78 25.343 104.85 26.3551C103.011 28.3568 100.6 30.5723 98.0543 32.7448ZM120.038 55.1774C121.043 57.1702 121.432 59.4549 121.31 61.8234C120.215 61.3631 117.757 60.3481 116.639 60.0352C114.276 59.374 110.207 58.3095 107.862 57.7004C107.209 56.3234 105.413 55.9566 103.649 53.9821C104.352 54.1582 106.824 54.6824 112.315 54.9894C114.844 55.1308 118.162 55.1681 120.038 55.1774ZM120.811 65.1899C120.404 66.8748 119.769 68.553 118.941 70.1524C118.452 69.7288 115.131 66.8621 113.069 65.3524C111.457 64.1724 107.638 62.1462 105.887 61.2363C107.122 60.9598 108.016 60.3258 108.11 59.1381C109.602 59.5896 112.455 60.4923 114.259 61.3117C115.879 62.0474 119.32 64.2295 120.811 65.1899ZM117.282 72.8855C115.55 75.346 113.344 77.4724 110.827 78.9349C110.118 77.7803 108.327 74.8623 106.7 72.2213C106.903 71.1516 106.585 69.6067 105.774 68.1313C104.755 66.2786 103.282 65.1262 102.202 65.2295C100.895 63.2846 99.6117 61.408 99.0239 60.5506C100.379 61.0112 102.397 61.424 104.188 61.4101C105.446 62.2773 109.787 65.3022 111.48 66.9118C113.417 68.7531 116.502 72.0486 117.282 72.8855ZM108.074 80.2138C106.82 80.6558 105.512 80.9315 104.166 81.0086C104.091 81.0129 104.016 81.0165 103.942 81.0194C103.551 80.3823 98.4892 72.1428 96.0771 68.5404C94.0306 65.484 91.4366 62.8078 88.6807 58.7415C86.6998 55.8189 84.9981 53.1011 83.9148 51.3281C83.9231 51.15 83.9312 50.9727 83.9392 50.7965C85.7912 52.3281 91.3463 56.7862 96.2121 59.3075C97.0008 60.5028 98.937 63.4475 100.962 66.6046C100.765 67.6738 101.083 69.2117 101.891 70.6807C102.839 72.405 104.181 73.5227 105.233 73.586C106.847 76.6197 107.722 79.1072 108.074 80.2138ZM103.633 81.0276C102.737 81.0403 101.865 80.9549 101.018 80.7843L103.633 81.0276ZM100.144 80.5759C89.4775 77.6358 83.1189 61.3144 83.4139 59.2025C83.5326 58.3529 83.6651 56.272 83.7862 53.954C84.6653 55.5597 86.0374 57.9649 87.5062 60.1562C90.4585 64.561 93.9306 69.1907 96.0471 72.6133C97.7563 75.3773 99.7734 79.7608 100.144 80.5759ZM83.1365 33.7713C84.3559 32.822 85.1369 31.2834 85.1094 29.5613C85.0791 27.6651 84.0762 26.0287 82.6119 25.1744C83.3906 23.4221 84.7416 20.5419 85.8485 19.0105C87.0039 17.4119 88.8893 15.6087 88.8893 15.6087C88.8893 15.6087 94.0559 12.2913 93.0078 11.7449C91.9597 11.1985 91.0054 11.918 90.4218 12.3606C89.4915 13.066 88.0006 14.7639 88.0006 14.7639C88.0006 14.7639 85.669 17.6895 84.8747 19.029C83.9131 20.6507 82.6403 23.2223 81.8674 24.8234C81.3448 24.6315 80.7818 24.532 80.1962 24.5432C79.83 24.5502 79.4741 24.6001 79.1325 24.6883C79.2223 22.4592 79.2017 18.5236 78.092 16.7881C77.2907 15.5348 70.7184 13.4474 69.7662 12.7779C69.1687 12.3579 67.4176 11.7421 67.0236 12.0669C66.6295 12.3917 67.7351 13.3606 68.1615 14.0397C68.4787 14.5447 71.3672 14.6666 71.3672 14.6666C71.3672 14.6666 76.3913 15.9395 77.5971 17.493C78.7698 19.0039 78.6552 22.6909 78.4582 24.9193C76.6632 25.6935 75.4116 27.5735 75.4463 29.7456C75.4494 29.9373 75.4624 30.1264 75.4848 30.3122C72.3622 25.325 67.9657 19.2902 62.717 14.7714C53.8996 7.18014 42.2493 3.1569 33.759 1.79218C25.2687 0.42746 21.6964 7.3801 22.0201 12.3595C22.4476 18.9359 27.9398 24.3644 29.1095 32.8301C29.4419 35.236 29.3109 43.0479 33.3127 46.814C37.3144 50.5802 43.2208 49.918 43.2208 49.918C43.2208 49.918 38.6551 51.1373 36.6558 58.8055C34.6565 66.4737 46.0889 87.2003 56.6661 86.9985C64.1633 86.8556 72.3861 76.4273 77.3974 65.2274C76.3387 74.5764 75.4477 87.6654 78.4111 83.5927C81.1583 79.8173 82.5738 70.6976 83.2967 61.9241C83.6902 63.2407 84.1365 64.4384 84.6422 65.4426C90.2983 76.674 99.5382 87.199 107.293 86.755C117.824 86.1519 127.875 64.6924 125.399 57.2262C122.924 49.7601 118.306 48.8955 118.306 48.8955C118.306 48.8955 124.221 49.1047 127.961 45.0592C131.701 41.0137 131.074 33.2629 131.252 30.8474C131.877 22.3482 136.993 16.538 137 9.9721C137.005 5.00067 133.011 -1.63517 124.654 0.365552C116.298 2.36627 104.968 7.24817 96.6825 15.4596C90.7349 21.3539 86.1598 29.3441 83.4068 34.9083C83.3249 34.5018 83.2348 34.1228 83.1365 33.7713ZM78.3238 55.2438C78.2091 54.3914 78.0837 53.3754 77.9569 52.2998C77.1754 53.9775 75.9837 56.4216 74.6874 58.6699C72.0067 63.3194 68.8186 68.2346 66.9137 71.8337C65.5613 74.3891 64.0504 78.2197 63.4875 79.6835C71.2429 76.7877 76.1295 66.7797 77.9064 61.0909C77.9506 60.76 77.9941 60.4425 78.0365 60.1402C78.2763 58.4289 78.3532 56.7869 78.3238 55.2438ZM76.4603 43.1824C73.9358 43.308 62.367 44.0489 53.1626 47.3938L61.236 48.4911C67.1487 46.7167 73.9147 45.2953 76.6856 44.7408C76.5538 44.176 76.4687 43.7469 76.4643 43.4712C76.4627 43.3745 76.4614 43.2782 76.4603 43.1824ZM76.4615 41.6557C74.7699 41.6642 69.5606 41.7597 62.7424 42.4112C54.5188 43.1969 45.5901 44.9275 44.3829 44.9505C42.5936 44.9847 36.9682 43.6891 34.1425 36.0773C35.6914 35.3141 38.182 34.2019 39.7653 34.0798C46.6872 33.5462 60.6484 34.1716 65.7153 34.4291C70.0191 37.4219 74.1976 40.0575 76.4646 41.4579C76.4635 41.5236 76.4625 41.5895 76.4615 41.6557ZM77.0296 46.1635C75.8955 46.4289 62.3883 49.6162 61.3108 51.1139C60.5345 52.1929 61.2614 53.2323 60.5327 54.2285C59.1192 56.1612 55.0769 57.3782 56.3127 58.84C57.3706 60.0914 61.0206 58.8452 62.0568 58.297C64.7033 56.8967 77.1221 47.1954 77.1221 47.1954L77.1111 46.5035C77.0835 46.3875 77.0563 46.2742 77.0296 46.1635ZM77.6552 49.6642C77.6336 49.4708 77.6122 49.278 77.591 49.0865C75.7644 50.827 70.5724 55.6236 65.9262 58.4879C65.1267 59.8764 63.1846 63.2628 61.2396 66.7562C61.3645 67.3994 61.2563 68.2137 60.8936 68.9914C60.444 69.9555 59.723 70.607 59.0471 70.7492C56.7949 74.9598 55.7466 78.5657 55.3836 80.0011C56.6563 80.3405 57.9717 80.5126 59.3122 80.4871C59.4567 80.4843 59.6005 80.4791 59.7434 80.4714C60.7409 78.5758 64.6443 71.1798 66.6219 67.7462C68.48 64.5202 70.9121 61.6339 73.4175 57.3395C75.1755 54.3261 76.679 51.5291 77.6552 49.6642ZM59.8473 65.5484C61.1439 63.3291 62.5146 61.035 63.1543 59.968C61.73 60.5721 59.55 61.1771 57.6688 61.238C56.3596 62.3221 52.4923 65.5641 50.9812 67.2692C49.306 69.1595 46.7178 72.4268 45.8207 73.5669C47.6886 75.8168 49.9868 77.7069 52.5423 78.9406C53.3856 77.359 55.8082 72.8174 57.4564 69.7506C57.4879 69.6919 57.5206 69.6314 57.5544 69.5693C57.4263 68.9244 57.5338 68.1057 57.8984 67.3239C58.3708 66.3109 59.1428 65.643 59.8473 65.5484ZM43.9779 71.0095C42.9969 69.431 42.217 67.7492 41.6834 66.0415C43.0891 64.9739 46.2784 62.5886 47.8028 61.7469C49.6361 60.7347 52.6415 59.5372 53.9536 59.0299C54.0334 60.2631 54.8775 60.8886 56.0605 61.1264C54.3806 62.1953 50.8165 64.5074 49.3243 65.8129C47.5125 67.3982 44.6855 70.2829 43.9779 71.0095ZM40.976 62.7731C40.7081 60.5088 40.9226 58.2853 41.7244 56.2821C43.5842 56.1273 46.9935 55.8222 49.5713 55.4693C54.7511 54.7603 57.2215 54.0618 58.0678 53.7847C56.5237 55.7433 54.8723 56.3027 54.2276 57.5652C52.0769 58.307 47.8115 59.7853 45.4029 60.6679C44.3375 61.0583 42.0215 62.2339 40.976 62.7731ZM43.4544 53.3755C43.5518 53.2584 43.6522 53.1428 43.7556 53.0287C44.9444 51.716 46.491 50.5764 48.266 49.5873C49.6812 49.4502 52.3462 49.2179 53.5963 49.2787C55.4932 49.3711 58.1513 49.8761 59.0633 50.0584C58.8244 50.8474 58.885 51.8335 58.6611 52.6717C56.6697 52.8836 50.7021 53.4864 46.5548 53.5655C45.0523 53.5941 44.0796 53.5091 43.4544 53.3755ZM32.5845 28.2614C32.5026 27.0644 32.4711 25.7836 32.4976 24.4132C32.5103 23.7564 32.5403 23.1297 32.5863 22.5319C34.2698 22.3453 37.1466 22.0664 39.6691 22.0182C42.5105 21.9641 49.1509 22.8102 52.4334 23.257C53.2697 24.2722 54.1886 25.2694 55.1956 26.2179C57.2038 28.1094 59.8198 30.1768 62.5651 32.1849C57.0792 32.0139 43.9892 31.5804 40.822 31.2437C38.1348 30.958 34.6279 29.3224 32.5845 28.2614ZM33.617 17.2204C36.3422 9.41219 43.2378 10.3496 45.5555 10.9125C46.2432 12.8842 47.858 16.92 50.7402 21.0287C48.102 20.7172 42.1454 19.9652 38.6213 19.1415C37.5419 18.8892 35.1904 17.9053 33.617 17.2204ZM50.9969 12.6265C54.9564 14.1079 60.7273 16.7798 65.4399 21.0294C73.4621 28.2632 76.3242 36.2738 76.3242 36.2738C76.3242 36.2738 76.3371 37.6196 76.432 38.9656C72.8341 36.6845 62.7447 30.0787 58.2669 24.9937C53.7307 19.8424 51.6035 14.3829 50.9969 12.6265ZM84.4096 47.9131C84.4096 47.9131 99.1204 50.2343 100.332 51.7261C101.168 52.7556 100.517 53.8593 101.301 54.8089C102.821 56.6512 106.893 57.5721 105.766 59.1404C104.801 60.4831 101.115 59.503 100.056 59.0286C97.3519 57.8169 84.4604 48.9731 84.4604 48.9731L84.4096 47.9131Z"
     fill="url(#paint0_linear_59_8)"
     id="path2" />
  <path
     d="M0.961862 102.424C4.69615 102.424 7.72318 105.508 7.72318 109.327C7.72318 113.118 4.69615 116.23 0.961862 116.23H0.820411V122.652H0V102.424H0.961862V102.424ZM0.961862 115.409C4.24351 115.409 6.90277 112.665 6.90277 109.327C6.90277 105.961 4.24351 103.245 0.961862 103.245H0.820411V115.409H0.961862V115.409ZM18.6446 109.327C18.6446 111.958 17.2018 114.25 15.0517 115.409L18.6446 122.652H17.711L14.2879 115.749C13.5523 116.06 12.7319 116.23 11.8832 116.23H11.7418V122.652H10.9214V102.424H11.8832C15.6175 102.424 18.6446 105.508 18.6446 109.327V109.327ZM11.7418 103.245V115.409H11.8832C15.1649 115.409 17.8241 112.665 17.8241 109.327C17.8241 105.961 15.1649 103.245 11.8832 103.245H11.7418V103.245ZM22.6632 102.424V122.652H21.8427V102.424H22.6632ZM35.1405 102.424H35.9609V122.652H35.1405V119.002C34.999 112.524 31.6891 106.838 26.6818 103.415V122.652H25.8613V102.424H26.6818C30.7272 104.999 33.7543 108.988 35.1405 113.712V102.424ZM45.8072 102.424V103.245H42.9217V122.652H42.1012V103.245H39.1591V102.424H45.8072V102.424ZM49.8258 102.424V122.652H49.0054V102.424H49.8258ZM62.3032 102.424H63.1236V122.652H62.3032V119.002C62.1617 112.524 58.8518 106.838 53.8445 103.415V122.652H53.024V102.424H53.8445C57.8899 104.999 60.917 108.988 62.3032 113.712V102.424ZM75.6009 108.818H77.2417V122.652H76.4213C70.8482 122.652 66.3218 118.097 66.3218 112.524C66.3218 106.951 70.8482 102.424 76.4213 102.424H77.2417V103.245H76.4213C71.3008 103.245 67.1422 107.403 67.1422 112.524C67.1422 117.644 71.3008 121.803 76.4213 121.803V109.667H75.6009V108.818V108.818ZM88.9849 102.424C94.5581 102.424 99.0845 106.951 99.0845 112.524C99.0845 118.097 94.5581 122.652 88.9849 122.652H88.1645V102.424H88.9849V102.424ZM88.9849 121.803C94.1054 121.803 98.2641 117.644 98.2641 112.524C98.2641 107.403 94.1054 103.245 88.9849 103.245V121.803V121.803ZM110.006 109.327C110.006 111.958 108.563 114.25 106.413 115.409L110.006 122.652H109.072L105.649 115.749C104.914 116.06 104.093 116.23 103.245 116.23H103.103V122.652H102.283V102.424H103.245C106.979 102.424 110.006 105.508 110.006 109.327V109.327ZM103.103 103.245V115.409H103.245C106.526 115.409 109.185 112.665 109.185 109.327C109.185 105.961 106.526 103.245 103.245 103.245H103.103V103.245ZM117.278 103.273H114.024V108.846H117.278V109.695H114.024V121.803H117.278V122.652H113.204V102.424H117.278V103.273V103.273ZM130.66 122.652L129.868 119.455H122.117L121.325 122.652H120.476L125.483 102.424H126.502L131.509 122.652H130.66V122.652ZM122.315 118.606H129.67L125.993 103.839L122.315 118.606ZM146.533 102.424H147.353V122.652H146.533V104.263L141.497 114.391H140.563L135.528 104.263V122.652H134.707V102.424H135.528L141.016 113.457L146.533 102.424ZM154.795 123.048C153.126 123.048 151.541 122.256 150.551 120.898L151.202 120.417C152.051 121.548 153.38 122.227 154.795 122.227C157.199 122.227 159.18 120.247 159.18 117.814C159.18 115.296 157.256 113.457 155.389 111.647C153.578 109.95 151.739 108.167 151.739 105.819C151.739 103.726 153.465 102 155.558 102C156.775 102 157.935 102.594 158.67 103.584L157.991 104.065C157.426 103.301 156.52 102.82 155.558 102.82C153.918 102.82 152.56 104.178 152.56 105.819C152.56 107.799 154.201 109.384 155.955 111.053C157.935 112.977 160 114.957 160 117.814C160 120.7 157.652 123.048 154.795 123.048V123.048Z"
     fill="#FBFBFF"
     id="path4" />
  <defs
     id="defs11">
    <linearGradient
       id="paint0_linear_59_8"
       x1="22"
       y1="0"
       x2="137"
       y2="0"
       gradientUnits="userSpaceOnUse">
      <stop
         stop-color="#6D7CFF"
         id="stop6" />
      <stop
         offset="1"
         stop-color="#FF51FF"
         id="stop8" />
    </linearGradient>
  </defs>
</svg>
